# xmcd
#
# Track frame offsets:
#	182
#	12755
#	25825
#	40622
#	57075
#	71062
#	83607
#	99920
#	115260
#	130782
#	145210
#
# Disc length: 2156 seconds
#
# Revision: 11
# Processed by: cddbd v1.5.2PL0 Copyright (c) Steve Scherf et al.
# Submitted via: dBpowerAMP V4.0
#
DISCID=82086a0b
DTITLE=Clay Walker - Hypnotize The Moon
DYEAR=1995
DGENRE=Country
TTITLE0=Who Needs You Baby
TTITLE1=I Won't Have The Heart
TTITLE2=Let Me Take That Heartache (Off Your Hands)
TTITLE3=Hypnotize The Moon
TTITLE4=Hand Me Down Heart
TTITLE5=Only On Days That End In 'Y'
TTITLE6=Where Were You
TTITLE7=Loving You Comes Naturally To Me
TTITLE8=Bury The Shovel
TTITLE9=A Cowboy's Toughest Ride
TTITLE10=Love Me Like You Love Me
EXTD=
EXTT0=
EXTT1=
EXTT2=
EXTT3=
EXTT4=
EXTT5=
EXTT6=
EXTT7=
EXTT8=
EXTT9=
EXTT10=
PLAYORDER=
